# xmcd CD database file
#
# Track frame offsets:
#	150
#	11704
#	23716
#	36181
#	44911
#	56779
#	67157
#	77975
#	91569
#	100820
#	114975
#	129025
#
# Disc length: 1908 seconds
#
# Revision: 1
# Processed by: cddbd v1.5.1PL0 Copyright (c) Steve Scherf et al.
# Submitted via: CDex 1.51
#
DISCID=9907720c
DTITLE=Ray Charles - Ray Charles
DYEAR=2001
DGENRE=Blues
TTITLE0=Ray Charles Blues
TTITLE1=C.C. Rider
TTITLE2=Rockin' Chair Blues
TTITLE3=Going Away Blues
TTITLE4=St. Pete Blues
TTITLE5=Sitting On Top Of The World
TTITLE6=I Wonder Who's Kissing Her Now
TTITLE7=This Love Of Mine
TTITLE8=All To Myself Alone
TTITLE9=Blues Is My Middle Name
TTITLE10=Baby Let Me Hold Your Hand
TTITLE11=Kiss Me Baby
EXTD=YEAR: 2001
EXTT0=
EXTT1=
EXTT2=
EXTT3=
EXTT4=
EXTT5=
EXTT6=
EXTT7=
EXTT8=
EXTT9=
EXTT10=
EXTT11=
PLAYORDER=
